<mxfile host="app.diagrams.net" modified="2022-05-01T16:27:20.438Z" agent="5.0 (Windows NT 10.0; Win64; x64) AppleWebKit/537.36 (KHTML, like Gecko) Chrome/100.0.4896.127 Safari/537.36" etag="oN9UQq7yEJ9o2TK4t044" version="17.5.0" type="github">
  <diagram id="gEjERgKf5OfBZat1bvdT" name="Page-1">
    <mxGraphModel dx="2234" dy="1337" grid="1" gridSize="10" guides="1" tooltips="1" connect="1" arrows="1" fold="1" page="1" pageScale="1" pageWidth="827" pageHeight="1169" math="0" shadow="0">
      <root>
        <mxCell id="0" />
        <mxCell id="1" parent="0" />
        <mxCell id="YMlBzqVmozhn6zE5V56M-1" value="" style="ellipse;whiteSpace=wrap;html=1;strokeWidth=1;fontSize=28;fontStyle=1" vertex="1" parent="1">
          <mxGeometry x="340" y="60" width="120" height="80" as="geometry" />
        </mxCell>
        <mxCell id="YMlBzqVmozhn6zE5V56M-4" value="" style="endArrow=none;html=1;rounded=0;entryX=0;entryY=1;entryDx=0;entryDy=0;strokeWidth=1;fontSize=28;fontStyle=1" edge="1" parent="1" target="YMlBzqVmozhn6zE5V56M-1">
          <mxGeometry width="50" height="50" relative="1" as="geometry">
            <mxPoint x="280" y="200" as="sourcePoint" />
            <mxPoint x="430" y="220" as="targetPoint" />
            <Array as="points">
              <mxPoint x="330" y="160" />
            </Array>
          </mxGeometry>
        </mxCell>
        <mxCell id="YMlBzqVmozhn6zE5V56M-5" value="" style="ellipse;whiteSpace=wrap;html=1;strokeWidth=1;fontSize=28;fontStyle=1" vertex="1" parent="1">
          <mxGeometry x="190" y="190" width="140" height="110" as="geometry" />
        </mxCell>
        <mxCell id="YMlBzqVmozhn6zE5V56M-6" value="" style="endArrow=none;html=1;rounded=0;entryX=1;entryY=1;entryDx=0;entryDy=0;strokeWidth=1;fontSize=28;fontStyle=1;exitX=0.5;exitY=0;exitDx=0;exitDy=0;" edge="1" parent="1" source="YMlBzqVmozhn6zE5V56M-7" target="YMlBzqVmozhn6zE5V56M-1">
          <mxGeometry width="50" height="50" relative="1" as="geometry">
            <mxPoint x="520" y="210" as="sourcePoint" />
            <mxPoint x="430" y="220" as="targetPoint" />
          </mxGeometry>
        </mxCell>
        <mxCell id="YMlBzqVmozhn6zE5V56M-7" value="" style="ellipse;whiteSpace=wrap;html=1;strokeWidth=1;fontSize=28;fontStyle=1" vertex="1" parent="1">
          <mxGeometry x="380" y="200" width="160" height="100" as="geometry" />
        </mxCell>
        <mxCell id="YMlBzqVmozhn6zE5V56M-14" value="" style="ellipse;whiteSpace=wrap;html=1;strokeWidth=1;fontSize=28;fontStyle=1" vertex="1" parent="1">
          <mxGeometry x="590" y="216.02" width="130" height="83.98" as="geometry" />
        </mxCell>
        <mxCell id="YMlBzqVmozhn6zE5V56M-15" value="" style="endArrow=none;html=1;rounded=0;entryX=0.973;entryY=0.764;entryDx=0;entryDy=0;exitX=0.5;exitY=0;exitDx=0;exitDy=0;strokeWidth=1;fontSize=28;fontStyle=1;entryPerimeter=0;" edge="1" parent="1" source="YMlBzqVmozhn6zE5V56M-14" target="YMlBzqVmozhn6zE5V56M-1">
          <mxGeometry width="50" height="50" relative="1" as="geometry">
            <mxPoint x="790" y="256.02" as="sourcePoint" />
            <mxPoint x="730.6207983471577" y="190.0035802522441" as="targetPoint" />
          </mxGeometry>
        </mxCell>
        <mxCell id="YMlBzqVmozhn6zE5V56M-196" value="&lt;span style=&quot;font-size: 28px&quot;&gt;&lt;font style=&quot;font-size: 28px&quot;&gt;Drobeta&lt;/font&gt;&lt;/span&gt;" style="ellipse;whiteSpace=wrap;html=1;strokeWidth=1;fontSize=28;fontStyle=1" vertex="1" parent="1">
          <mxGeometry x="1350" y="1000" width="120" height="80" as="geometry" />
        </mxCell>
        <mxCell id="YMlBzqVmozhn6zE5V56M-197" value="" style="endArrow=none;html=1;rounded=0;entryX=0;entryY=1;entryDx=0;entryDy=0;strokeWidth=1;fontSize=28;fontStyle=1;exitX=0.5;exitY=0;exitDx=0;exitDy=0;" edge="1" parent="1" source="YMlBzqVmozhn6zE5V56M-198" target="YMlBzqVmozhn6zE5V56M-196">
          <mxGeometry width="50" height="50" relative="1" as="geometry">
            <mxPoint x="1290" y="1140" as="sourcePoint" />
            <mxPoint x="1440" y="1160" as="targetPoint" />
          </mxGeometry>
        </mxCell>
        <mxCell id="YMlBzqVmozhn6zE5V56M-198" value="Mehadia" style="ellipse;whiteSpace=wrap;html=1;strokeWidth=1;fontSize=28;fontStyle=1" vertex="1" parent="1">
          <mxGeometry x="1250" y="1120" width="140" height="110" as="geometry" />
        </mxCell>
        <mxCell id="YMlBzqVmozhn6zE5V56M-199" value="" style="endArrow=none;html=1;rounded=0;entryX=1;entryY=1;entryDx=0;entryDy=0;strokeWidth=1;fontSize=28;fontStyle=1;exitX=0.5;exitY=0;exitDx=0;exitDy=0;" edge="1" parent="1" source="YMlBzqVmozhn6zE5V56M-200" target="YMlBzqVmozhn6zE5V56M-196">
          <mxGeometry width="50" height="50" relative="1" as="geometry">
            <mxPoint x="1530" y="1150" as="sourcePoint" />
            <mxPoint x="1440" y="1160" as="targetPoint" />
          </mxGeometry>
        </mxCell>
        <mxCell id="YMlBzqVmozhn6zE5V56M-200" value="Craiova" style="ellipse;whiteSpace=wrap;html=1;strokeWidth=1;fontSize=28;fontStyle=1" vertex="1" parent="1">
          <mxGeometry x="1670" y="1109" width="160" height="100" as="geometry" />
        </mxCell>
        <mxCell id="YMlBzqVmozhn6zE5V56M-201" value="&lt;span style=&quot;color: rgba(0 , 0 , 0 , 0) ; font-family: monospace ; font-size: 0px&quot;&gt;%3CmxGraphModel%3E%3Croot%3E%3CmxCell%20id%3D%220%22%2F%3E%3CmxCell%20id%3D%221%22%20parent%3D%220%22%2F%3E%3CmxCell%20id%3D%222%22%20value%3D%22%26lt%3Bspan%20style%3D%26quot%3Bfont-size%3A%2028px%26quot%3B%26gt%3B%26lt%3Bfont%20style%3D%26quot%3Bfont-size%3A%2028px%26quot%3B%26gt%3BDrobeta%26lt%3B%2Ffont%26gt%3B%26lt%3B%2Fspan%26gt%3B%22%20style%3D%22ellipse%3BwhiteSpace%3Dwrap%3Bhtml%3D1%3BstrokeWidth%3D1%3BfontSize%3D28%3BfontStyle%3D1%22%20vertex%3D%221%22%20parent%3D%221%22%3E%3CmxGeometry%20x%3D%2294%22%20y%3D%221090%22%20width%3D%22120%22%20height%3D%2280%22%20as%3D%22geometry%22%2F%3E%3C%2FmxCell%3E%3CmxCell%20id%3D%223%22%20value%3D%22%22%20style%3D%22endArrow%3Dnone%3Bhtml%3D1%3Brounded%3D0%3BentryX%3D0%3BentryY%3D1%3BentryDx%3D0%3BentryDy%3D0%3BstrokeWidth%3D1%3BfontSize%3D28%3BfontStyle%3D1%22%20edge%3D%221%22%20target%3D%222%22%20parent%3D%221%22%3E%3CmxGeometry%20width%3D%2250%22%20height%3D%2250%22%20relative%3D%221%22%20as%3D%22geometry%22%3E%3CmxPoint%20x%3D%2234%22%20y%3D%221230%22%20as%3D%22sourcePoint%22%2F%3E%3CmxPoint%20x%3D%22184%22%20y%3D%221250%22%20as%3D%22targetPoint%22%2F%3E%3CArray%20as%3D%22points%22%3E%3CmxPoint%20x%3D%2284%22%20y%3D%221190%22%2F%3E%3C%2FArray%3E%3C%2FmxGeometry%3E%3C%2FmxCell%3E%3CmxCell%20id%3D%224%22%20value%3D%22Mehadia%22%20style%3D%22ellipse%3BwhiteSpace%3Dwrap%3Bhtml%3D1%3BstrokeWidth%3D1%3BfontSize%3D28%3BfontStyle%3D1%22%20vertex%3D%221%22%20parent%3D%221%22%3E%3CmxGeometry%20x%3D%22-56%22%20y%3D%221220%22%20width%3D%22140%22%20height%3D%22110%22%20as%3D%22geometry%22%2F%3E%3C%2FmxCell%3E%3CmxCell%20id%3D%225%22%20value%3D%22%22%20style%3D%22endArrow%3Dnone%3Bhtml%3D1%3Brounded%3D0%3BentryX%3D1%3BentryY%3D1%3BentryDx%3D0%3BentryDy%3D0%3BstrokeWidth%3D1%3BfontSize%3D28%3BfontStyle%3D1%3BexitX%3D0.5%3BexitY%3D0%3BexitDx%3D0%3BexitDy%3D0%3B%22%20edge%3D%221%22%20source%3D%226%22%20target%3D%222%22%20parent%3D%221%22%3E%3CmxGeometry%20width%3D%2250%22%20height%3D%2250%22%20relative%3D%221%22%20as%3D%22geometry%22%3E%3CmxPoint%20x%3D%22274%22%20y%3D%221240%22%20as%3D%22sourcePoint%22%2F%3E%3CmxPoint%20x%3D%22184%22%20y%3D%221250%22%20as%3D%22targetPoint%22%2F%3E%3C%2FmxGeometry%3E%3C%2FmxCell%3E%3CmxCell%20id%3D%226%22%20value%3D%22Craiova%22%20style%3D%22ellipse%3BwhiteSpace%3Dwrap%3Bhtml%3D1%3BstrokeWidth%3D1%3BfontSize%3D28%3BfontStyle%3D1%22%20vertex%3D%221%22%20parent%3D%221%22%3E%3CmxGeometry%20x%3D%22134%22%20y%3D%221230%22%20width%3D%22160%22%20height%3D%22100%22%20as%3D%22geometry%22%2F%3E%3C%2FmxCell%3E%3CmxCell%20id%3D%227%22%20value%3D%2275%2B241%3D316%22%20style%3D%22text%3Bhtml%3D1%3BstrokeColor%3Dnone%3BfillColor%3Dnone%3Balign%3Dcenter%3BverticalAlign%3Dmiddle%3BwhiteSpace%3Dwrap%3Brounded%3D0%3BfontSize%3D20%3B%22%20vertex%3D%221%22%20parent%3D%221%22%3E%3CmxGeometry%20x%3D%22-30%22%20y%3D%221340%22%20width%3D%2260%22%20height%3D%2230%22%20as%3D%22geometry%22%2F%3E%3C%2FmxCell%3E%3CmxCell%20id%3D%228%22%20value%3D%22120%2B160%3D280%22%20style%3D%22text%3Bhtml%3D1%3BstrokeColor%3Dnone%3BfillColor%3Dnone%3Balign%3Dcenter%3BverticalAlign%3Dmiddle%3BwhiteSpace%3Dwrap%3Brounded%3D0%3BfontSize%3D20%3B%22%20vertex%3D%221%22%20parent%3D%221%22%3E%3CmxGeometry%20x%3D%22168%22%20y%3D%221330%22%20width%3D%2260%22%20height%3D%2230%22%20as%3D%22geometry%22%2F%3E%3C%2FmxCell%3E%3C%2Froot%3E%3C%2FmxGraphModel%3E&lt;/span&gt;" style="text;html=1;strokeColor=none;fillColor=none;align=center;verticalAlign=middle;whiteSpace=wrap;rounded=0;fontSize=20;" vertex="1" parent="1">
          <mxGeometry x="1424" y="1240" width="60" height="30" as="geometry" />
        </mxCell>
        <mxCell id="YMlBzqVmozhn6zE5V56M-202" value="" style="endArrow=none;html=1;rounded=0;strokeWidth=1;fontSize=28;fontStyle=1;exitX=0.5;exitY=0;exitDx=0;exitDy=0;" edge="1" parent="1" source="YMlBzqVmozhn6zE5V56M-203" target="YMlBzqVmozhn6zE5V56M-200">
          <mxGeometry width="50" height="50" relative="1" as="geometry">
            <mxPoint x="1540" y="1410" as="sourcePoint" />
            <mxPoint x="1462.4264068711927" y="1328.2842712474621" as="targetPoint" />
          </mxGeometry>
        </mxCell>
        <mxCell id="YMlBzqVmozhn6zE5V56M-203" value="Rimnicu Vilcea" style="ellipse;whiteSpace=wrap;html=1;strokeWidth=1;fontSize=28;fontStyle=1" vertex="1" parent="1">
          <mxGeometry x="1830" y="1340" width="160" height="100" as="geometry" />
        </mxCell>
        <mxCell id="YMlBzqVmozhn6zE5V56M-204" value="" style="endArrow=none;html=1;rounded=0;entryX=0.5;entryY=1;entryDx=0;entryDy=0;strokeWidth=1;fontSize=28;fontStyle=1;exitX=0.5;exitY=0;exitDx=0;exitDy=0;" edge="1" parent="1" source="YMlBzqVmozhn6zE5V56M-205" target="YMlBzqVmozhn6zE5V56M-198">
          <mxGeometry width="50" height="50" relative="1" as="geometry">
            <mxPoint x="1350" y="1316.11" as="sourcePoint" />
            <mxPoint x="1400.5025253169415" y="1230.0008729652598" as="targetPoint" />
          </mxGeometry>
        </mxCell>
        <mxCell id="YMlBzqVmozhn6zE5V56M-205" value="Lugoj" style="ellipse;whiteSpace=wrap;html=1;fontSize=28;strokeWidth=1;" vertex="1" parent="1">
          <mxGeometry x="1400" y="1310" width="120" height="80" as="geometry" />
        </mxCell>
        <mxCell id="YMlBzqVmozhn6zE5V56M-214" value="Bucharest" style="ellipse;whiteSpace=wrap;html=1;strokeWidth=1;fontSize=28;fontStyle=1" vertex="1" parent="1">
          <mxGeometry x="1580" y="1584" width="174" height="114.01" as="geometry" />
        </mxCell>
        <mxCell id="YMlBzqVmozhn6zE5V56M-217" value="Pitesti" style="ellipse;whiteSpace=wrap;html=1;strokeWidth=1;fontSize=28;fontStyle=1" vertex="1" parent="1">
          <mxGeometry x="1630" y="1392.9900000000002" width="130" height="100" as="geometry" />
        </mxCell>
        <mxCell id="YMlBzqVmozhn6zE5V56M-218" value="" style="endArrow=none;html=1;rounded=0;strokeWidth=1;fontSize=28;fontStyle=1;exitX=0.5;exitY=0;exitDx=0;exitDy=0;entryX=0.5;entryY=1;entryDx=0;entryDy=0;" edge="1" parent="1" source="YMlBzqVmozhn6zE5V56M-217" target="YMlBzqVmozhn6zE5V56M-200">
          <mxGeometry width="50" height="50" relative="1" as="geometry">
            <mxPoint x="1486" y="1412.9900000000002" as="sourcePoint" />
            <mxPoint x="1748.016482972048" y="1227.0046291044164" as="targetPoint" />
          </mxGeometry>
        </mxCell>
        <mxCell id="YMlBzqVmozhn6zE5V56M-221" value="" style="endArrow=none;html=1;rounded=0;strokeWidth=1;fontSize=28;fontStyle=1;exitX=0.5;exitY=0;exitDx=0;exitDy=0;entryX=0.5;entryY=1;entryDx=0;entryDy=0;" edge="1" parent="1" source="YMlBzqVmozhn6zE5V56M-214" target="YMlBzqVmozhn6zE5V56M-217">
          <mxGeometry width="50" height="50" relative="1" as="geometry">
            <mxPoint x="1830" y="1718.9900000000002" as="sourcePoint" />
            <mxPoint x="1885" y="1535" as="targetPoint" />
          </mxGeometry>
        </mxCell>
        <mxCell id="YMlBzqVmozhn6zE5V56M-222" value="359+0=359" style="text;html=1;strokeColor=none;fillColor=none;align=center;verticalAlign=middle;whiteSpace=wrap;rounded=0;fontSize=20;" vertex="1" parent="1">
          <mxGeometry x="1637" y="1720.0000000000005" width="60" height="30" as="geometry" />
        </mxCell>
        <mxCell id="YMlBzqVmozhn6zE5V56M-223" value="266+193=459" style="text;html=1;strokeColor=none;fillColor=none;align=center;verticalAlign=middle;whiteSpace=wrap;rounded=0;fontSize=20;" vertex="1" parent="1">
          <mxGeometry x="1900" y="1462.9899999999998" width="60" height="30" as="geometry" />
        </mxCell>
        <mxCell id="YMlBzqVmozhn6zE5V56M-224" value="&lt;span style=&quot;font-size: 28px&quot;&gt;&lt;font style=&quot;font-size: 28px&quot;&gt;Drobeta&lt;/font&gt;&lt;/span&gt;" style="ellipse;whiteSpace=wrap;html=1;strokeWidth=1;fontSize=28;fontStyle=1" vertex="1" parent="1">
          <mxGeometry x="820" y="350" width="120" height="80" as="geometry" />
        </mxCell>
        <mxCell id="YMlBzqVmozhn6zE5V56M-225" value="" style="endArrow=none;html=1;rounded=0;entryX=0;entryY=1;entryDx=0;entryDy=0;strokeWidth=1;fontSize=28;fontStyle=1;exitX=0.5;exitY=0;exitDx=0;exitDy=0;" edge="1" parent="1" source="YMlBzqVmozhn6zE5V56M-226" target="YMlBzqVmozhn6zE5V56M-224">
          <mxGeometry width="50" height="50" relative="1" as="geometry">
            <mxPoint x="760" y="490" as="sourcePoint" />
            <mxPoint x="910" y="510" as="targetPoint" />
          </mxGeometry>
        </mxCell>
        <mxCell id="YMlBzqVmozhn6zE5V56M-226" value="Mehadia" style="ellipse;whiteSpace=wrap;html=1;strokeWidth=1;fontSize=28;fontStyle=1" vertex="1" parent="1">
          <mxGeometry x="720" y="470" width="140" height="110" as="geometry" />
        </mxCell>
        <mxCell id="YMlBzqVmozhn6zE5V56M-227" value="" style="endArrow=none;html=1;rounded=0;entryX=1;entryY=1;entryDx=0;entryDy=0;strokeWidth=1;fontSize=28;fontStyle=1;exitX=0.5;exitY=0;exitDx=0;exitDy=0;" edge="1" parent="1" source="YMlBzqVmozhn6zE5V56M-228" target="YMlBzqVmozhn6zE5V56M-224">
          <mxGeometry width="50" height="50" relative="1" as="geometry">
            <mxPoint x="1000" y="500" as="sourcePoint" />
            <mxPoint x="910" y="510" as="targetPoint" />
          </mxGeometry>
        </mxCell>
        <mxCell id="YMlBzqVmozhn6zE5V56M-228" value="Craiova" style="ellipse;whiteSpace=wrap;html=1;strokeWidth=1;fontSize=28;fontStyle=1" vertex="1" parent="1">
          <mxGeometry x="1140" y="459" width="160" height="100" as="geometry" />
        </mxCell>
        <mxCell id="YMlBzqVmozhn6zE5V56M-229" value="&lt;span style=&quot;color: rgba(0 , 0 , 0 , 0) ; font-family: monospace ; font-size: 0px&quot;&gt;%3CmxGraphModel%3E%3Croot%3E%3CmxCell%20id%3D%220%22%2F%3E%3CmxCell%20id%3D%221%22%20parent%3D%220%22%2F%3E%3CmxCell%20id%3D%222%22%20value%3D%22%26lt%3Bspan%20style%3D%26quot%3Bfont-size%3A%2028px%26quot%3B%26gt%3B%26lt%3Bfont%20style%3D%26quot%3Bfont-size%3A%2028px%26quot%3B%26gt%3BDrobeta%26lt%3B%2Ffont%26gt%3B%26lt%3B%2Fspan%26gt%3B%22%20style%3D%22ellipse%3BwhiteSpace%3Dwrap%3Bhtml%3D1%3BstrokeWidth%3D1%3BfontSize%3D28%3BfontStyle%3D1%22%20vertex%3D%221%22%20parent%3D%221%22%3E%3CmxGeometry%20x%3D%2294%22%20y%3D%221090%22%20width%3D%22120%22%20height%3D%2280%22%20as%3D%22geometry%22%2F%3E%3C%2FmxCell%3E%3CmxCell%20id%3D%223%22%20value%3D%22%22%20style%3D%22endArrow%3Dnone%3Bhtml%3D1%3Brounded%3D0%3BentryX%3D0%3BentryY%3D1%3BentryDx%3D0%3BentryDy%3D0%3BstrokeWidth%3D1%3BfontSize%3D28%3BfontStyle%3D1%22%20edge%3D%221%22%20target%3D%222%22%20parent%3D%221%22%3E%3CmxGeometry%20width%3D%2250%22%20height%3D%2250%22%20relative%3D%221%22%20as%3D%22geometry%22%3E%3CmxPoint%20x%3D%2234%22%20y%3D%221230%22%20as%3D%22sourcePoint%22%2F%3E%3CmxPoint%20x%3D%22184%22%20y%3D%221250%22%20as%3D%22targetPoint%22%2F%3E%3CArray%20as%3D%22points%22%3E%3CmxPoint%20x%3D%2284%22%20y%3D%221190%22%2F%3E%3C%2FArray%3E%3C%2FmxGeometry%3E%3C%2FmxCell%3E%3CmxCell%20id%3D%224%22%20value%3D%22Mehadia%22%20style%3D%22ellipse%3BwhiteSpace%3Dwrap%3Bhtml%3D1%3BstrokeWidth%3D1%3BfontSize%3D28%3BfontStyle%3D1%22%20vertex%3D%221%22%20parent%3D%221%22%3E%3CmxGeometry%20x%3D%22-56%22%20y%3D%221220%22%20width%3D%22140%22%20height%3D%22110%22%20as%3D%22geometry%22%2F%3E%3C%2FmxCell%3E%3CmxCell%20id%3D%225%22%20value%3D%22%22%20style%3D%22endArrow%3Dnone%3Bhtml%3D1%3Brounded%3D0%3BentryX%3D1%3BentryY%3D1%3BentryDx%3D0%3BentryDy%3D0%3BstrokeWidth%3D1%3BfontSize%3D28%3BfontStyle%3D1%3BexitX%3D0.5%3BexitY%3D0%3BexitDx%3D0%3BexitDy%3D0%3B%22%20edge%3D%221%22%20source%3D%226%22%20target%3D%222%22%20parent%3D%221%22%3E%3CmxGeometry%20width%3D%2250%22%20height%3D%2250%22%20relative%3D%221%22%20as%3D%22geometry%22%3E%3CmxPoint%20x%3D%22274%22%20y%3D%221240%22%20as%3D%22sourcePoint%22%2F%3E%3CmxPoint%20x%3D%22184%22%20y%3D%221250%22%20as%3D%22targetPoint%22%2F%3E%3C%2FmxGeometry%3E%3C%2FmxCell%3E%3CmxCell%20id%3D%226%22%20value%3D%22Craiova%22%20style%3D%22ellipse%3BwhiteSpace%3Dwrap%3Bhtml%3D1%3BstrokeWidth%3D1%3BfontSize%3D28%3BfontStyle%3D1%22%20vertex%3D%221%22%20parent%3D%221%22%3E%3CmxGeometry%20x%3D%22134%22%20y%3D%221230%22%20width%3D%22160%22%20height%3D%22100%22%20as%3D%22geometry%22%2F%3E%3C%2FmxCell%3E%3CmxCell%20id%3D%227%22%20value%3D%2275%2B241%3D316%22%20style%3D%22text%3Bhtml%3D1%3BstrokeColor%3Dnone%3BfillColor%3Dnone%3Balign%3Dcenter%3BverticalAlign%3Dmiddle%3BwhiteSpace%3Dwrap%3Brounded%3D0%3BfontSize%3D20%3B%22%20vertex%3D%221%22%20parent%3D%221%22%3E%3CmxGeometry%20x%3D%22-30%22%20y%3D%221340%22%20width%3D%2260%22%20height%3D%2230%22%20as%3D%22geometry%22%2F%3E%3C%2FmxCell%3E%3CmxCell%20id%3D%228%22%20value%3D%22120%2B160%3D280%22%20style%3D%22text%3Bhtml%3D1%3BstrokeColor%3Dnone%3BfillColor%3Dnone%3Balign%3Dcenter%3BverticalAlign%3Dmiddle%3BwhiteSpace%3Dwrap%3Brounded%3D0%3BfontSize%3D20%3B%22%20vertex%3D%221%22%20parent%3D%221%22%3E%3CmxGeometry%20x%3D%22168%22%20y%3D%221330%22%20width%3D%2260%22%20height%3D%2230%22%20as%3D%22geometry%22%2F%3E%3C%2FmxCell%3E%3C%2Froot%3E%3C%2FmxGraphModel%3E&lt;/span&gt;" style="text;html=1;strokeColor=none;fillColor=none;align=center;verticalAlign=middle;whiteSpace=wrap;rounded=0;fontSize=20;" vertex="1" parent="1">
          <mxGeometry x="894" y="590" width="60" height="30" as="geometry" />
        </mxCell>
        <mxCell id="YMlBzqVmozhn6zE5V56M-230" value="" style="endArrow=none;html=1;rounded=0;strokeWidth=1;fontSize=28;fontStyle=1;exitX=0.5;exitY=0;exitDx=0;exitDy=0;" edge="1" parent="1" source="YMlBzqVmozhn6zE5V56M-231" target="YMlBzqVmozhn6zE5V56M-228">
          <mxGeometry width="50" height="50" relative="1" as="geometry">
            <mxPoint x="1010" y="760" as="sourcePoint" />
            <mxPoint x="932.4264068711927" y="678.2842712474621" as="targetPoint" />
          </mxGeometry>
        </mxCell>
        <mxCell id="YMlBzqVmozhn6zE5V56M-231" value="Rimnicu Vilcea" style="ellipse;whiteSpace=wrap;html=1;strokeWidth=1;fontSize=28;fontStyle=1" vertex="1" parent="1">
          <mxGeometry x="1300" y="690" width="160" height="100" as="geometry" />
        </mxCell>
        <mxCell id="YMlBzqVmozhn6zE5V56M-237" value="Pitesti" style="ellipse;whiteSpace=wrap;html=1;strokeWidth=1;fontSize=28;fontStyle=1" vertex="1" parent="1">
          <mxGeometry x="1100" y="742.9900000000002" width="130" height="100" as="geometry" />
        </mxCell>
        <mxCell id="YMlBzqVmozhn6zE5V56M-238" value="" style="endArrow=none;html=1;rounded=0;strokeWidth=1;fontSize=28;fontStyle=1;exitX=0.5;exitY=0;exitDx=0;exitDy=0;entryX=0.5;entryY=1;entryDx=0;entryDy=0;" edge="1" parent="1" source="YMlBzqVmozhn6zE5V56M-237" target="YMlBzqVmozhn6zE5V56M-228">
          <mxGeometry width="50" height="50" relative="1" as="geometry">
            <mxPoint x="956" y="762.9900000000002" as="sourcePoint" />
            <mxPoint x="1218.016482972048" y="577.0046291044164" as="targetPoint" />
          </mxGeometry>
        </mxCell>
        <mxCell id="YMlBzqVmozhn6zE5V56M-239" value="258+100=358" style="text;html=1;strokeColor=none;fillColor=none;align=center;verticalAlign=middle;whiteSpace=wrap;rounded=0;fontSize=20;" vertex="1" parent="1">
          <mxGeometry x="1135" y="850.0000000000005" width="60" height="30" as="geometry" />
        </mxCell>
        <mxCell id="YMlBzqVmozhn6zE5V56M-240" value="266+193=459" style="text;html=1;strokeColor=none;fillColor=none;align=center;verticalAlign=middle;whiteSpace=wrap;rounded=0;fontSize=20;" vertex="1" parent="1">
          <mxGeometry x="1370" y="830" width="60" height="30" as="geometry" />
        </mxCell>
        <mxCell id="YMlBzqVmozhn6zE5V56M-242" value="&lt;span style=&quot;font-size: 28px&quot;&gt;&lt;font style=&quot;font-size: 28px&quot;&gt;Drobeta&lt;/font&gt;&lt;/span&gt;" style="ellipse;whiteSpace=wrap;html=1;strokeWidth=1;fontSize=28;fontStyle=1" vertex="1" parent="1">
          <mxGeometry x="360" y="380" width="120" height="80" as="geometry" />
        </mxCell>
        <mxCell id="YMlBzqVmozhn6zE5V56M-243" value="" style="endArrow=none;html=1;rounded=0;entryX=0;entryY=1;entryDx=0;entryDy=0;strokeWidth=1;fontSize=28;fontStyle=1" edge="1" parent="1" target="YMlBzqVmozhn6zE5V56M-242">
          <mxGeometry width="50" height="50" relative="1" as="geometry">
            <mxPoint x="300" y="520" as="sourcePoint" />
            <mxPoint x="450" y="540" as="targetPoint" />
            <Array as="points">
              <mxPoint x="350" y="480" />
            </Array>
          </mxGeometry>
        </mxCell>
        <mxCell id="YMlBzqVmozhn6zE5V56M-244" value="Mehadia" style="ellipse;whiteSpace=wrap;html=1;strokeWidth=1;fontSize=28;fontStyle=1" vertex="1" parent="1">
          <mxGeometry x="210" y="510" width="140" height="110" as="geometry" />
        </mxCell>
        <mxCell id="YMlBzqVmozhn6zE5V56M-245" value="" style="endArrow=none;html=1;rounded=0;entryX=1;entryY=1;entryDx=0;entryDy=0;strokeWidth=1;fontSize=28;fontStyle=1;exitX=0.5;exitY=0;exitDx=0;exitDy=0;" edge="1" parent="1" source="YMlBzqVmozhn6zE5V56M-246" target="YMlBzqVmozhn6zE5V56M-242">
          <mxGeometry width="50" height="50" relative="1" as="geometry">
            <mxPoint x="540" y="530" as="sourcePoint" />
            <mxPoint x="450" y="540" as="targetPoint" />
          </mxGeometry>
        </mxCell>
        <mxCell id="YMlBzqVmozhn6zE5V56M-246" value="Craiova" style="ellipse;whiteSpace=wrap;html=1;strokeWidth=1;fontSize=28;fontStyle=1" vertex="1" parent="1">
          <mxGeometry x="400" y="520" width="160" height="100" as="geometry" />
        </mxCell>
        <mxCell id="YMlBzqVmozhn6zE5V56M-247" value="75+241=316" style="text;html=1;strokeColor=none;fillColor=none;align=center;verticalAlign=middle;whiteSpace=wrap;rounded=0;fontSize=20;" vertex="1" parent="1">
          <mxGeometry x="236" y="630" width="60" height="30" as="geometry" />
        </mxCell>
        <mxCell id="YMlBzqVmozhn6zE5V56M-248" value="120+160=280" style="text;html=1;strokeColor=none;fillColor=none;align=center;verticalAlign=middle;whiteSpace=wrap;rounded=0;fontSize=20;" vertex="1" parent="1">
          <mxGeometry x="434" y="620" width="60" height="30" as="geometry" />
        </mxCell>
        <mxCell id="YMlBzqVmozhn6zE5V56M-249" value="75+241=316" style="text;html=1;strokeColor=none;fillColor=none;align=center;verticalAlign=middle;whiteSpace=wrap;rounded=0;fontSize=20;" vertex="1" parent="1">
          <mxGeometry x="740" y="590" width="60" height="30" as="geometry" />
        </mxCell>
        <mxCell id="YMlBzqVmozhn6zE5V56M-251" value="&lt;span style=&quot;font-size: 28px&quot;&gt;&lt;font style=&quot;font-size: 28px&quot;&gt;Drobeta&lt;/font&gt;&lt;/span&gt;" style="ellipse;whiteSpace=wrap;html=1;strokeWidth=1;fontSize=28;fontStyle=1" vertex="1" parent="1">
          <mxGeometry x="350" y="900" width="120" height="80" as="geometry" />
        </mxCell>
        <mxCell id="YMlBzqVmozhn6zE5V56M-252" value="" style="endArrow=none;html=1;rounded=0;entryX=0;entryY=1;entryDx=0;entryDy=0;strokeWidth=1;fontSize=28;fontStyle=1;exitX=0.5;exitY=0;exitDx=0;exitDy=0;" edge="1" parent="1" source="YMlBzqVmozhn6zE5V56M-253" target="YMlBzqVmozhn6zE5V56M-251">
          <mxGeometry width="50" height="50" relative="1" as="geometry">
            <mxPoint x="290" y="1040" as="sourcePoint" />
            <mxPoint x="440" y="1060" as="targetPoint" />
          </mxGeometry>
        </mxCell>
        <mxCell id="YMlBzqVmozhn6zE5V56M-253" value="Mehadia" style="ellipse;whiteSpace=wrap;html=1;strokeWidth=1;fontSize=28;fontStyle=1" vertex="1" parent="1">
          <mxGeometry x="250" y="1020" width="140" height="110" as="geometry" />
        </mxCell>
        <mxCell id="YMlBzqVmozhn6zE5V56M-254" value="" style="endArrow=none;html=1;rounded=0;entryX=1;entryY=1;entryDx=0;entryDy=0;strokeWidth=1;fontSize=28;fontStyle=1;exitX=0.5;exitY=0;exitDx=0;exitDy=0;" edge="1" parent="1" source="YMlBzqVmozhn6zE5V56M-255" target="YMlBzqVmozhn6zE5V56M-251">
          <mxGeometry width="50" height="50" relative="1" as="geometry">
            <mxPoint x="530" y="1050" as="sourcePoint" />
            <mxPoint x="440" y="1060" as="targetPoint" />
          </mxGeometry>
        </mxCell>
        <mxCell id="YMlBzqVmozhn6zE5V56M-255" value="Craiova" style="ellipse;whiteSpace=wrap;html=1;strokeWidth=1;fontSize=28;fontStyle=1" vertex="1" parent="1">
          <mxGeometry x="670" y="1009" width="160" height="100" as="geometry" />
        </mxCell>
        <mxCell id="YMlBzqVmozhn6zE5V56M-256" value="&lt;span style=&quot;color: rgba(0 , 0 , 0 , 0) ; font-family: monospace ; font-size: 0px&quot;&gt;%3CmxGraphModel%3E%3Croot%3E%3CmxCell%20id%3D%220%22%2F%3E%3CmxCell%20id%3D%221%22%20parent%3D%220%22%2F%3E%3CmxCell%20id%3D%222%22%20value%3D%22%26lt%3Bspan%20style%3D%26quot%3Bfont-size%3A%2028px%26quot%3B%26gt%3B%26lt%3Bfont%20style%3D%26quot%3Bfont-size%3A%2028px%26quot%3B%26gt%3BDrobeta%26lt%3B%2Ffont%26gt%3B%26lt%3B%2Fspan%26gt%3B%22%20style%3D%22ellipse%3BwhiteSpace%3Dwrap%3Bhtml%3D1%3BstrokeWidth%3D1%3BfontSize%3D28%3BfontStyle%3D1%22%20vertex%3D%221%22%20parent%3D%221%22%3E%3CmxGeometry%20x%3D%2294%22%20y%3D%221090%22%20width%3D%22120%22%20height%3D%2280%22%20as%3D%22geometry%22%2F%3E%3C%2FmxCell%3E%3CmxCell%20id%3D%223%22%20value%3D%22%22%20style%3D%22endArrow%3Dnone%3Bhtml%3D1%3Brounded%3D0%3BentryX%3D0%3BentryY%3D1%3BentryDx%3D0%3BentryDy%3D0%3BstrokeWidth%3D1%3BfontSize%3D28%3BfontStyle%3D1%22%20edge%3D%221%22%20target%3D%222%22%20parent%3D%221%22%3E%3CmxGeometry%20width%3D%2250%22%20height%3D%2250%22%20relative%3D%221%22%20as%3D%22geometry%22%3E%3CmxPoint%20x%3D%2234%22%20y%3D%221230%22%20as%3D%22sourcePoint%22%2F%3E%3CmxPoint%20x%3D%22184%22%20y%3D%221250%22%20as%3D%22targetPoint%22%2F%3E%3CArray%20as%3D%22points%22%3E%3CmxPoint%20x%3D%2284%22%20y%3D%221190%22%2F%3E%3C%2FArray%3E%3C%2FmxGeometry%3E%3C%2FmxCell%3E%3CmxCell%20id%3D%224%22%20value%3D%22Mehadia%22%20style%3D%22ellipse%3BwhiteSpace%3Dwrap%3Bhtml%3D1%3BstrokeWidth%3D1%3BfontSize%3D28%3BfontStyle%3D1%22%20vertex%3D%221%22%20parent%3D%221%22%3E%3CmxGeometry%20x%3D%22-56%22%20y%3D%221220%22%20width%3D%22140%22%20height%3D%22110%22%20as%3D%22geometry%22%2F%3E%3C%2FmxCell%3E%3CmxCell%20id%3D%225%22%20value%3D%22%22%20style%3D%22endArrow%3Dnone%3Bhtml%3D1%3Brounded%3D0%3BentryX%3D1%3BentryY%3D1%3BentryDx%3D0%3BentryDy%3D0%3BstrokeWidth%3D1%3BfontSize%3D28%3BfontStyle%3D1%3BexitX%3D0.5%3BexitY%3D0%3BexitDx%3D0%3BexitDy%3D0%3B%22%20edge%3D%221%22%20source%3D%226%22%20target%3D%222%22%20parent%3D%221%22%3E%3CmxGeometry%20width%3D%2250%22%20height%3D%2250%22%20relative%3D%221%22%20as%3D%22geometry%22%3E%3CmxPoint%20x%3D%22274%22%20y%3D%221240%22%20as%3D%22sourcePoint%22%2F%3E%3CmxPoint%20x%3D%22184%22%20y%3D%221250%22%20as%3D%22targetPoint%22%2F%3E%3C%2FmxGeometry%3E%3C%2FmxCell%3E%3CmxCell%20id%3D%226%22%20value%3D%22Craiova%22%20style%3D%22ellipse%3BwhiteSpace%3Dwrap%3Bhtml%3D1%3BstrokeWidth%3D1%3BfontSize%3D28%3BfontStyle%3D1%22%20vertex%3D%221%22%20parent%3D%221%22%3E%3CmxGeometry%20x%3D%22134%22%20y%3D%221230%22%20width%3D%22160%22%20height%3D%22100%22%20as%3D%22geometry%22%2F%3E%3C%2FmxCell%3E%3CmxCell%20id%3D%227%22%20value%3D%2275%2B241%3D316%22%20style%3D%22text%3Bhtml%3D1%3BstrokeColor%3Dnone%3BfillColor%3Dnone%3Balign%3Dcenter%3BverticalAlign%3Dmiddle%3BwhiteSpace%3Dwrap%3Brounded%3D0%3BfontSize%3D20%3B%22%20vertex%3D%221%22%20parent%3D%221%22%3E%3CmxGeometry%20x%3D%22-30%22%20y%3D%221340%22%20width%3D%2260%22%20height%3D%2230%22%20as%3D%22geometry%22%2F%3E%3C%2FmxCell%3E%3CmxCell%20id%3D%228%22%20value%3D%22120%2B160%3D280%22%20style%3D%22text%3Bhtml%3D1%3BstrokeColor%3Dnone%3BfillColor%3Dnone%3Balign%3Dcenter%3BverticalAlign%3Dmiddle%3BwhiteSpace%3Dwrap%3Brounded%3D0%3BfontSize%3D20%3B%22%20vertex%3D%221%22%20parent%3D%221%22%3E%3CmxGeometry%20x%3D%22168%22%20y%3D%221330%22%20width%3D%2260%22%20height%3D%2230%22%20as%3D%22geometry%22%2F%3E%3C%2FmxCell%3E%3C%2Froot%3E%3C%2FmxGraphModel%3E&lt;/span&gt;" style="text;html=1;strokeColor=none;fillColor=none;align=center;verticalAlign=middle;whiteSpace=wrap;rounded=0;fontSize=20;" vertex="1" parent="1">
          <mxGeometry x="424" y="1140" width="60" height="30" as="geometry" />
        </mxCell>
        <mxCell id="YMlBzqVmozhn6zE5V56M-257" value="" style="endArrow=none;html=1;rounded=0;strokeWidth=1;fontSize=28;fontStyle=1;exitX=0.5;exitY=0;exitDx=0;exitDy=0;" edge="1" parent="1" source="YMlBzqVmozhn6zE5V56M-258" target="YMlBzqVmozhn6zE5V56M-255">
          <mxGeometry width="50" height="50" relative="1" as="geometry">
            <mxPoint x="540" y="1310" as="sourcePoint" />
            <mxPoint x="462.42640687119274" y="1228.2842712474621" as="targetPoint" />
          </mxGeometry>
        </mxCell>
        <mxCell id="YMlBzqVmozhn6zE5V56M-258" value="Rimnicu Vilcea" style="ellipse;whiteSpace=wrap;html=1;strokeWidth=1;fontSize=28;fontStyle=1" vertex="1" parent="1">
          <mxGeometry x="830" y="1240" width="160" height="100" as="geometry" />
        </mxCell>
        <mxCell id="YMlBzqVmozhn6zE5V56M-259" value="" style="endArrow=none;html=1;rounded=0;entryX=0.5;entryY=1;entryDx=0;entryDy=0;strokeWidth=1;fontSize=28;fontStyle=1;exitX=0.5;exitY=0;exitDx=0;exitDy=0;" edge="1" parent="1" source="YMlBzqVmozhn6zE5V56M-260" target="YMlBzqVmozhn6zE5V56M-253">
          <mxGeometry width="50" height="50" relative="1" as="geometry">
            <mxPoint x="350" y="1216.1099999999997" as="sourcePoint" />
            <mxPoint x="400.5025253169415" y="1130.00087296526" as="targetPoint" />
          </mxGeometry>
        </mxCell>
        <mxCell id="YMlBzqVmozhn6zE5V56M-260" value="Lugoj" style="ellipse;whiteSpace=wrap;html=1;fontSize=28;strokeWidth=1;" vertex="1" parent="1">
          <mxGeometry x="270" y="1212.9899999999998" width="120" height="80" as="geometry" />
        </mxCell>
        <mxCell id="YMlBzqVmozhn6zE5V56M-264" value="Pitesti" style="ellipse;whiteSpace=wrap;html=1;strokeWidth=1;fontSize=28;fontStyle=1" vertex="1" parent="1">
          <mxGeometry x="630" y="1292.9900000000002" width="130" height="100" as="geometry" />
        </mxCell>
        <mxCell id="YMlBzqVmozhn6zE5V56M-265" value="" style="endArrow=none;html=1;rounded=0;strokeWidth=1;fontSize=28;fontStyle=1;exitX=0.5;exitY=0;exitDx=0;exitDy=0;entryX=0.5;entryY=1;entryDx=0;entryDy=0;" edge="1" parent="1" source="YMlBzqVmozhn6zE5V56M-264" target="YMlBzqVmozhn6zE5V56M-255">
          <mxGeometry width="50" height="50" relative="1" as="geometry">
            <mxPoint x="486" y="1312.9900000000002" as="sourcePoint" />
            <mxPoint x="748.0164829720479" y="1127.0046291044164" as="targetPoint" />
          </mxGeometry>
        </mxCell>
        <mxCell id="YMlBzqVmozhn6zE5V56M-266" value="258+100=358" style="text;html=1;strokeColor=none;fillColor=none;align=center;verticalAlign=middle;whiteSpace=wrap;rounded=0;fontSize=20;" vertex="1" parent="1">
          <mxGeometry x="665" y="1400.0000000000005" width="60" height="30" as="geometry" />
        </mxCell>
        <mxCell id="YMlBzqVmozhn6zE5V56M-267" value="266+193=459" style="text;html=1;strokeColor=none;fillColor=none;align=center;verticalAlign=middle;whiteSpace=wrap;rounded=0;fontSize=20;" vertex="1" parent="1">
          <mxGeometry x="900" y="1380" width="60" height="30" as="geometry" />
        </mxCell>
        <mxCell id="YMlBzqVmozhn6zE5V56M-268" value="145+244=389" style="text;html=1;strokeColor=none;fillColor=none;align=center;verticalAlign=middle;whiteSpace=wrap;rounded=0;fontSize=20;" vertex="1" parent="1">
          <mxGeometry x="290" y="1323" width="60" height="30" as="geometry" />
        </mxCell>
        <mxCell id="YMlBzqVmozhn6zE5V56M-269" value="145+244=389" style="text;html=1;strokeColor=none;fillColor=none;align=center;verticalAlign=middle;whiteSpace=wrap;rounded=0;fontSize=20;" vertex="1" parent="1">
          <mxGeometry x="1420" y="1410" width="60" height="30" as="geometry" />
        </mxCell>
      </root>
    </mxGraphModel>
  </diagram>
</mxfile>
